<svg width="36" height="20" viewBox="0 0 36 20" fill="none" xmlns="http://www.w3.org/2000/svg">
<path d="M10.4357 20H0.447711C0.199435 20 0 19.7998 0 19.5506V9.79367C0 9.54443 0.199435 9.34423 0.447711 9.34423H10.4317C10.6799 9.34423 10.8794 9.54443 10.8794 9.79367V19.5506C10.8794 19.7998 10.6799 20 10.4317 20H10.4357ZM1.56292 18.6844H9.31645C9.56473 18.6844 9.76416 18.4842 9.76416 18.2349V11.1134C9.76416 10.8641 9.56473 10.6639 9.31645 10.6639H1.56292C1.31464 10.6639 1.11521 10.8641 1.11521 11.1134V18.2349C1.11521 18.4842 1.31464 18.6844 1.56292 18.6844Z" fill="#131C50"/>
<path d="M22.992 20H13.008C12.7598 20 12.5603 19.7998 12.5603 19.5506V0.449438C12.5603 0.200204 12.7598 0 13.008 0H22.992C23.2402 0 23.4397 0.200204 23.4397 0.449438V19.5465C23.4397 19.7957 23.2402 19.9959 22.992 19.9959V20ZM14.1232 18.6844H21.8768C22.125 18.6844 22.3245 18.4842 22.3245 18.2349V1.76915C22.3245 1.51992 22.125 1.31971 21.8768 1.31971H14.1232C13.875 1.31971 13.6755 1.51992 13.6755 1.76915V18.2308C13.6755 18.4801 13.875 18.6803 14.1232 18.6803V18.6844Z" fill="#131C50"/>
<path d="M35.5523 20H25.5683C25.3201 20 25.1206 19.7998 25.1206 19.5506V5.44229C25.1206 5.19305 25.3201 4.99285 25.5683 4.99285H35.5523C35.8006 4.99285 36 5.19305 36 5.44229V19.5506C36 19.7998 35.8006 20 35.5523 20ZM26.6835 18.6844H34.4371C34.6854 18.6844 34.8848 18.4842 34.8848 18.2349V6.762C34.8848 6.51277 34.6854 6.31256 34.4371 6.31256H26.6835C26.4353 6.31256 26.2358 6.51277 26.2358 6.762V18.2349C26.2358 18.4842 26.4353 18.6844 26.6835 18.6844Z" fill="#131C50"/>
</svg>
