<svg width="30" height="30" viewBox="0 0 30 30" fill="none" xmlns="http://www.w3.org/2000/svg">
<path d="M23.8661 17.164V17.7569H21.9248L19.8391 14.8319H19.6453L17.5772 17.7569H15.6817V17.164L18.4474 13.4748L15.9107 10.0963V9.50701H17.8661L19.7052 12.0998H19.9025L21.7522 9.50701H23.6336V10.0963L21.1004 13.4748L23.8661 17.164Z" fill="#131C50"/>
<path d="M14.4345 9.50701V15.9641L12.6694 17.7569H8.57545L6.80681 15.9641V9.50701H8.78685V15.2712L9.51967 16.0105H11.7252L12.4615 15.2712V9.50701H14.4345Z" fill="#131C50"/>
<path d="M3.64298 0.210711H0V3.90352H3.64298V0.210711Z" fill="#131C50"/>
<path d="M3.64298 23.0497H0V26.7425H3.64298V23.0497Z" fill="#131C50"/>
<path d="M30 23.0497H26.357V26.7425H30V23.0497Z" fill="#131C50"/>
<path d="M30 0H26.357V3.6928H30V0Z" fill="#131C50"/>
<path d="M18.0141 29.7531L16.5097 23.9282C16.4357 23.639 16.7422 23.4068 16.9959 23.5604L22.2525 26.7853C22.5097 26.9425 22.4392 27.3389 22.1433 27.3925L19.744 27.8496C19.6453 27.8675 19.5573 27.9353 19.5114 28.0282L18.6271 29.8174C18.4932 30.0889 18.0951 30.0496 18.0176 29.7531H18.0141Z" fill="#131C50"/>
<path d="M27.1497 25.9532H3.52672C2.26541 25.9532 1.23664 24.9104 1.23664 23.6318V3.63209C1.23664 2.35354 2.26541 1.3107 3.52672 1.3107H27.1497C28.411 1.3107 29.4398 2.35354 29.4398 3.63209V23.6318C29.4398 24.9104 28.411 25.9532 27.1497 25.9532ZM3.52672 2.38211C2.84674 2.38211 2.2936 2.94282 2.2936 3.63209V23.6318C2.2936 24.3211 2.84674 24.8818 3.52672 24.8818H27.1497C27.8297 24.8818 28.3829 24.3211 28.3829 23.6318V3.63209C28.3829 2.94282 27.8297 2.38211 27.1497 2.38211H3.52672Z" fill="#131C50"/>
</svg>
