<svg width="40" height="18" viewBox="0 0 40 18" fill="none" xmlns="http://www.w3.org/2000/svg">
<path d="M30.6667 18C27.4512 18 24.572 16.3452 22.951 13.4904C22.9208 13.4331 22.9019 13.4102 22.8906 13.3987C22.8868 13.3987 22.8754 13.3987 22.8566 13.3987H22.849C20.956 13.4102 19.0365 13.4102 17.1434 13.3987C17.1246 13.3987 17.1132 13.3987 17.1057 13.3987C17.1057 13.4025 17.0868 13.4255 17.0641 13.4675C15.0048 16.8573 12.0198 18.3554 8.18838 17.9159C5.83059 17.6484 3.65417 16.3414 2.21078 14.3389C0.752277 12.3096 0.189279 9.77962 0.665371 7.39108C1.50042 3.19873 5.5661 0.0229299 10.1268 0H29.9337C30.0282 0.0152866 30.1264 0.0267516 30.2209 0.0382166C30.4211 0.0649682 30.6101 0.0917197 30.7876 0.0917197C33.4742 0.13758 35.968 1.40255 37.6268 3.56561C39.2817 5.7172 39.8787 8.46115 39.2628 11.0866C38.424 14.6752 35.507 17.4153 32.0043 17.9045C31.5547 17.9694 31.105 18 30.663 18H30.6667ZM22.8603 12.386C23.412 12.386 23.6614 12.707 23.8201 12.9898C25.4562 15.8713 28.5394 17.3694 31.8683 16.9032C34.9176 16.4752 37.5587 13.9873 38.2918 10.8535C38.8359 8.52611 38.3069 6.09554 36.837 4.18471C35.3634 2.26624 33.153 1.14268 30.7725 1.10446C30.5345 1.10446 30.3078 1.07006 30.0848 1.03949C30.0055 1.02803 29.9261 1.01656 29.8468 1.00892H10.1268C6.03463 1.02803 2.38837 3.85605 1.64401 7.58599C1.22081 9.69936 1.72335 11.9389 3.01938 13.7389C4.29652 15.5159 6.22356 16.6701 8.30174 16.907C11.7137 17.3006 14.3738 15.9631 16.2102 12.9325C16.3689 12.6764 16.6182 12.3822 17.1472 12.3822C19.0403 12.3936 20.9522 12.3936 22.8414 12.3822H22.8566L22.8603 12.386Z" fill="#131C50"/>
<path d="M13.6294 7.45987V9.74904H10.225V13.2H7.97679V9.77197H4.56479V7.4828H7.95412V4.03185H10.2174V7.45987H13.6294Z" fill="#131C50"/>
<path d="M34.9176 9.73376C34.9024 10.2382 34.6115 10.5172 34.1052 10.5325C33.6971 10.5478 33.289 10.5439 32.8772 10.5325C32.76 10.5325 32.6202 10.4904 32.5371 10.4178C32.0648 9.97834 31.6038 9.52357 31.0748 9.01529C31.6038 8.49554 32.0383 8.05987 32.4918 7.63949C32.5862 7.55159 32.7336 7.4828 32.8583 7.47898C33.2815 7.46369 33.7084 7.46369 34.1316 7.47898C34.6077 7.49809 34.8987 7.78089 34.9138 8.26242C34.9289 8.75541 34.9289 9.25223 34.9138 9.74522L34.9176 9.73376Z" fill="#131C50"/>
<path d="M31.8796 12.7911C31.8645 13.2994 31.5811 13.5898 31.0824 13.6089C30.6101 13.6242 30.134 13.6242 29.6617 13.6089C29.1553 13.5936 28.8719 13.307 28.8531 12.8025C28.8379 12.386 28.8342 11.9732 28.8531 11.5605C28.8606 11.4153 28.9248 11.2471 29.0193 11.1439C29.4312 10.6854 29.8657 10.2459 30.372 9.71847C30.8708 10.2459 31.3129 10.7006 31.7361 11.1707C31.8192 11.2662 31.8683 11.4191 31.8759 11.549C31.891 11.9656 31.891 12.3783 31.8759 12.7949L31.8796 12.7911Z" fill="#131C50"/>
<path d="M30.3191 8.21274C29.8732 7.7465 29.4349 7.30701 29.0231 6.84841C28.9248 6.74522 28.8644 6.57325 28.8606 6.43185C28.8379 6.0344 28.8455 5.63694 28.853 5.23567C28.8682 4.69299 29.1478 4.40637 29.673 4.39108C30.1302 4.3758 30.5874 4.37962 31.0446 4.39108C31.6 4.40637 31.8683 4.69299 31.8834 5.26242C31.8834 5.27771 31.8834 5.29299 31.8834 5.30828C32.197 6.69936 31.2448 7.40637 30.3153 8.20892L30.3191 8.21274Z" fill="#131C50"/>
<path d="M29.6276 8.97707C29.11 9.49682 28.649 9.9707 28.1767 10.4331C28.1049 10.5019 27.9764 10.5287 27.8782 10.5325C27.4512 10.5439 27.0243 10.5478 26.6011 10.5325C26.1212 10.5134 25.834 10.2306 25.8189 9.74904C25.8038 9.25223 25.8038 8.75541 25.8189 8.26624C25.834 7.78089 26.1136 7.49045 26.5859 7.47516C27.0129 7.45605 27.4399 7.45987 27.8669 7.47516C27.9802 7.47516 28.12 7.5172 28.2031 7.59363C28.6717 8.03694 29.1327 8.49554 29.6314 8.98089L29.6276 8.97707Z" fill="#131C50"/>
</svg>
